<svg width="28" height="28" viewBox="0 0 28 28" fill="none" xmlns="http://www.w3.org/2000/svg">
<g clip-path="url(#clip0_914_4321)">
<path d="M2.91699 15.1668C6.33533 11.1074 9.44099 8.77 10.8579 7.80983C11.3211 7.49541 11.9318 7.59808 12.2836 8.03325C12.9516 8.86556 13.5955 9.717 14.2144 10.5865C14.6857 11.2468 15.6803 11.2678 16.2024 10.6472C18.6151 7.78183 21.8759 4.9585 21.8759 4.9585" stroke="white" stroke-width="1.75" stroke-linecap="round" stroke-linejoin="round"/>
<path d="M24.7193 6.60515C25.1067 4.71806 25.1026 3.0544 25.0699 2.27098C25.0656 2.13787 25.0108 2.01139 24.9166 1.91716C24.8225 1.82293 24.6961 1.768 24.563 1.76348C23.1095 1.70948 21.6547 1.82716 20.2288 2.11406C19.7896 2.2039 19.6443 2.74115 19.9605 3.0579L23.7755 6.8729C24.0928 7.18965 24.6295 7.04381 24.7193 6.60515ZM3.07242 26.2267C2.41442 26.2051 1.91042 25.8073 1.84392 25.1528C1.79083 24.6395 1.75 23.8771 1.75 22.7501C1.75 21.6231 1.792 20.8601 1.84333 20.3473C1.91042 19.6928 2.41442 19.295 3.07242 19.2728C3.4615 19.26 3.98242 19.2501 4.66667 19.2501C5.35092 19.2501 5.87183 19.26 6.26092 19.2734C6.91892 19.295 7.42292 19.6928 7.48942 20.3473C7.54192 20.8606 7.58333 21.6231 7.58333 22.7501C7.58333 23.8771 7.54133 24.6401 7.49 25.1528C7.42292 25.8073 6.91892 26.2051 6.26092 26.2273C5.87125 26.2401 5.35092 26.2501 4.66667 26.2501C3.98242 26.2501 3.4615 26.2401 3.07242 26.2267ZM21.9082 26.2116C21.1499 26.1649 20.6232 25.6177 20.5683 24.86C20.4937 23.8327 20.4167 21.9725 20.4167 18.6667C20.4167 15.361 20.4937 13.5007 20.5683 12.4735C20.6232 11.7157 21.1499 11.168 21.9082 11.1219C22.2757 11.0991 22.7442 11.0834 23.3333 11.0834C23.9225 11.0834 24.3909 11.0991 24.7584 11.1219C25.5167 11.1686 26.0435 11.7157 26.0983 12.4735C26.173 13.5007 26.25 15.361 26.25 18.6667C26.25 21.9725 26.173 23.8327 26.0983 24.86C26.0435 25.6177 25.5167 26.1655 24.7584 26.2116C24.3909 26.2343 23.9231 26.2501 23.3333 26.2501C22.7442 26.2501 22.2757 26.2343 21.9082 26.2116ZM12.5417 26.2221C11.8043 26.19 11.2659 25.6971 11.2041 24.9621C11.1405 24.2049 11.0833 22.9752 11.0833 21.0001C11.0833 19.0249 11.1405 17.7952 11.2041 17.0381C11.2659 16.3031 11.8043 15.8101 12.5411 15.7781C13.0271 15.7581 13.5135 15.7487 14 15.7501C14.6078 15.7501 15.0862 15.7617 15.4583 15.7781C16.1957 15.8101 16.7341 16.3031 16.7959 17.0381C16.8595 17.7952 16.9167 19.0249 16.9167 21.0001C16.9167 22.9752 16.8595 24.2049 16.7959 24.9621C16.7341 25.6971 16.1957 26.19 15.4589 26.2221C15.0862 26.2384 14.6078 26.2501 14 26.2501C13.5137 26.2512 13.0275 26.2419 12.5417 26.2221Z" stroke="white" stroke-width="1.75" stroke-linecap="round" stroke-linejoin="round"/>
</g>
<defs>
<clipPath id="clip0_914_4321">
<rect width="28" height="28" fill="white"/>
</clipPath>
</defs>
</svg>
