<svg width="466" height="203" viewBox="0 0 466 203" fill="none" xmlns="http://www.w3.org/2000/svg">
<path d="M254.542 6.45535C250.123 6.52845 244.743 6.50629 239.741 6.44264C237.816 6.4174 235.893 6.38583 234.155 6.35134C232.242 6.31363 233.206 6.12617 231.868 6.09195C229.298 6.02526 226.826 6.12226 224.291 6.04362C223.434 6.01673 224.501 5.71973 223.6 5.69829C218.697 5.583 214.089 5.67547 209.133 5.63797C184.734 5.47003 160.749 5.55052 136.085 6.21268C134.725 6.25117 133.238 6.2904 131.798 6.32831C124.632 6.51652 116.661 6.76047 109.738 7.40733C108.771 7.49813 109.369 7.7094 109.187 7.74524C106.3 8.31025 107.238 7.71036 105.329 7.81226C97.7882 8.22032 89.4546 9.30185 82.4245 10.9681C79.4346 11.6844 82.5552 11.4938 79.4771 11.9195C79.2627 11.9511 79.9601 11.5016 79.1306 11.6713C78.1134 11.8799 76.6145 12.256 75.2259 12.6272C74.0658 12.9362 72.9818 13.2522 72.3275 13.4328C69.5715 14.2034 69.1195 14.354 66.5342 15.1846C63.8358 16.0579 60.7323 17.0393 57.7548 18.0929C56.8496 18.4128 55.9617 18.7558 55.1072 19.1173C54.3371 19.4477 55.4663 19.2839 54.2554 19.8402C53.0371 20.3807 49.8425 21.8729 48.7651 22.3865C47.6802 22.8841 48.025 22.4545 47.8144 22.5089C46.0538 22.9354 42.8348 25.5928 42.4192 25.9052C40.1875 27.4285 38.0947 28.9604 36.0966 30.5182C30.9914 34.5137 26.4767 38.6783 22.3365 43.7066C20.1055 46.4245 17.9911 49.3971 16.1046 52.4504C15.8887 52.7994 15.6732 53.1478 15.458 53.4955C13.8799 56.0446 12.494 58.6532 11.3082 61.1894C11.0651 61.7086 10.8306 62.2246 10.6039 62.738C7.79692 69.1679 6.04129 75.1483 5.19291 82.0809C5.10201 82.8709 5.53649 81.9852 5.43131 82.9472C5.21865 84.9598 5.09168 86.9783 5.04927 88.9967C5.00336 91.1806 4.95332 93.3621 4.89813 95.5421C4.78525 99.9607 5.26773 104.39 6.32328 108.691C6.70627 110.252 7.16445 111.797 7.69605 113.318C8.03761 114.28 7.29539 113.152 7.62674 114.123C9.09148 118.613 12.3823 124.782 15.797 128.057C16.9108 129.168 17.931 130.05 18.7831 130.563C19.4366 131.342 20.1231 132.159 20.8215 132.994C23.0657 135.692 25.6534 138.391 27.7182 140.495C29.4692 142.252 27.4366 140.923 29.8541 142.791C30.4043 143.205 29.889 142.426 30.701 143.058C32.2462 144.252 33.8758 145.468 35.5554 146.62C37.6332 148.045 39.7155 149.473 41.7251 150.766C42.4701 151.244 42.4121 150.903 42.6438 151.009C43.6383 151.471 44.7925 152.349 45.7627 153.159L45.5931 153.056C46.5968 153.714 47.4284 154.33 47.7472 154.524C52.734 157.549 56.5469 159.436 61.3306 161.995C62.4406 162.588 61.2839 161.595 62.3577 162.156C63.9112 162.968 65.4775 163.795 67.0448 164.63C71.0541 166.766 75.162 168.784 79.157 170.621C80.3906 171.186 79.132 170.956 79.7169 171.239C82.3074 172.473 83.0972 172.211 85.6115 173.305C86.1434 173.533 85.7531 173.644 85.8423 173.706C87.2427 174.685 88.8022 174.61 89.2049 174.739C92.7637 175.863 95.3488 176.949 98.2921 177.953C99.594 178.395 100.959 178.831 102.501 179.249C103.105 179.413 101.835 178.725 103.528 179.202C109.167 180.791 114.956 182.466 120.719 184.177L120.549 184.14C126.447 185.032 132.409 185.937 138.133 186.832C139.944 187.113 138.627 187.169 138.733 187.212C140.457 187.892 141.791 187.468 142.352 187.52C146.967 187.97 151.212 189.022 154.412 188.714C173.882 191.428 193.338 193.306 212.684 195.556C212.928 195.583 212.465 195.839 212.953 195.893C218.581 196.498 217.886 196.03 221.166 195.739C221.339 195.724 221.523 195.709 221.72 195.694C222.718 195.622 225.681 196.484 225.946 196.549C226.906 196.79 225.872 197.164 226.195 197.219C228.868 197.657 228.518 196.194 232.14 196.396C232.254 196.404 231.763 196.643 232.066 196.686C233.008 196.821 233.952 196.766 234.872 196.905C236.979 197.224 237.701 197.964 240.961 197.703C241.373 197.668 240.784 196.827 244.021 197.002C245.313 197.076 251.028 197.273 252.632 197.371C254.23 197.474 253.124 197.703 253.237 197.718C257.545 198.196 255.902 198.29 258.053 198.864C260.207 199.432 259.635 198.19 260.519 198.074C261.404 197.959 264.564 198.31 265.341 198.421C266.118 198.535 265.144 198.686 265.836 198.754C270.415 199.195 267.857 198.176 269.371 198.002C272.93 197.585 275.704 198.513 278.962 198.607C279.846 198.633 279.125 198.425 279.912 198.406C283.021 198.331 284.894 198.608 288.434 198.315C289.009 198.268 291.866 197.688 293.724 198.058C293.987 198.111 293.246 198.351 294.573 198.379C296.549 198.423 300.128 198.394 302.252 198.259C303.819 198.16 302.009 197.837 303.993 197.896C304.874 197.922 303.25 198.189 304.905 198.219C306.545 198.251 310.755 198.092 312.347 198.017C313.942 197.944 313.058 197.697 313.186 197.673C313.966 197.533 317.012 197.259 317.286 197.245C322.207 196.999 326.99 196.777 331.713 196.519C340.078 196.061 348.276 195.49 356.706 194.461C357.737 194.335 357.016 194.114 357.174 194.092C360.71 193.569 358.004 194.675 360.507 194.655C360.079 194.093 361.557 194.036 364.048 193.665C365.247 193.485 364.563 193.333 364.67 193.295C366.404 192.722 367.708 193.017 368.034 193.07C369.274 193.26 370.482 192.687 371.329 192.806C372.162 192.926 370.364 193.514 372.749 193.185C373.387 192.879 371.539 192.56 373.342 192.219C380.139 190.966 392.937 189.341 398.407 188.358C402.004 187.732 403.983 187.34 405.83 186.995C406.803 186.812 407.716 186.645 408.798 186.454C414.547 185.418 412.364 185.44 415.849 184.471C419.326 183.463 417.852 184.865 418.41 184.963C418.971 185.056 419.459 184.698 420.101 184.659C420.755 184.615 419.452 185.112 420.915 184.777C422.398 184.467 426.206 182.834 426.603 182.396C427.466 181.522 425.603 181.77 429.26 180.417C429.471 180.335 428.911 180.882 429.713 180.555C429.866 180.492 430.02 180.428 430.174 180.363C432.915 179.211 435.629 177.852 438.294 176.397C441.639 174.574 444.698 172.228 447.403 169.626C448.084 168.965 447.71 169.785 448.108 169.399C452.135 165.233 450.344 166.396 451.79 163.584C451.959 164.585 453.492 163.524 455.754 159.716C456.823 157.859 456.666 157.642 456.887 156.786C456.938 156.58 457.008 156.337 457.114 156.024C457.286 155.542 458.281 153.95 458.269 153.575C458.226 152.347 457.112 153.756 458.921 149.697C458.998 149.517 459.045 150.198 459.292 149.567C460.805 145.454 460.458 144.792 461.318 140.189C461.738 137.764 462.316 134.052 462.447 130.572C462.519 128.83 462.585 127.159 462.618 125.749C462.904 125.782 463.077 125.345 463.158 124.687C463.324 123.399 463.067 121.265 462.627 120.211C462.537 117.48 462.225 114.545 461.921 111.916C461.919 111.901 461.917 111.887 461.916 111.872C461.811 110.956 462.141 111.52 462.151 111.401C462.158 111.31 462.164 111.22 462.168 111.132C462.234 109.469 461.528 108.456 461.408 107.906C460.022 101.627 458.966 96.4241 456.354 90.8374C456.258 90.6393 455.594 90.5292 455.363 88.8552C455.347 88.7451 456.385 90.5129 455.278 87.8415C455.098 87.4151 454.895 86.9268 454.671 86.3938C454.642 86.3245 454.612 86.2544 454.582 86.1836L454.607 86.2317C453.157 83.5593 451.165 79.7672 449.316 77.0131C448.77 76.1994 447.118 74.2973 446.449 72.3916C446.361 72.1372 446.652 72.3032 446.543 71.9256C446.204 70.7706 445.42 70.4541 445.095 69.139C445.077 69.067 445.061 68.9919 445.045 68.9135C444.758 67.4226 443.49 64.5562 440.633 61.5712C440.541 61.475 439.572 61.0192 438.735 60.0569C438.168 59.404 437.494 58.6396 436.775 57.8737C435.799 56.83 434.738 55.7872 433.813 54.9745C433.042 54.3021 433.342 54.9551 433.205 54.8424C427.966 50.6344 423.964 47.8268 417.379 44.9767C417.276 44.9337 417.172 44.8905 417.068 44.8471C415.822 44.3269 412.07 43.2607 409.759 41.9984C407.221 40.6133 410.494 40.3686 404.239 38.2427C403.875 38.1187 403.484 38.022 403.069 37.9393L402.966 37.9036C400.472 37.6506 397.196 37.9665 393.494 36.0432C384.525 33.6714 376.426 30.8047 367.404 28.5221C366.999 28.4192 365.586 28.5384 364.644 28.2564C363.246 27.8369 362.543 27.3837 361.547 27.0768C357.375 25.785 353.481 24.8616 349.447 23.6521C347.916 23.1934 348.521 23.1133 346.695 22.5662C344.965 22.0482 343.697 21.9814 341.497 21.2324C341.376 21.1977 341.25 21.1602 341.12 21.1206C339.252 20.5488 337.51 19.4484 335.011 18.7684C334.763 19.3815 333.037 18.953 329.924 18.3826C329.326 18.2733 329.906 18.6469 329.62 18.6066C328.455 18.4475 327.447 18.0111 326.338 17.8759C326.068 17.8427 326.003 18.0569 325.78 18.042C323.877 17.9232 320.987 16.7118 320.49 16.5026C318.588 15.7037 317.595 15.764 316.107 15.2718C314.621 14.7803 316.926 15.1659 315.174 14.6632C313.744 14.2533 312.146 13.8346 310.506 13.4224C307.962 12.8287 305.324 12.253 303.055 11.7419C301.562 11.4071 302.516 11.9249 302.301 11.8837C299.196 11.2706 296.142 10.2662 294.301 10.4653C293.556 9.65188 293.104 9.46266 292.525 9.43208L292.489 9.42645C291.668 9.49063 290.634 9.90791 287.997 9.50428C287.643 9.44985 287.252 8.68778 288.626 8.69633C289.654 8.70266 291.086 8.93463 292.523 9.05111L292.607 9.06419C293.073 9.16372 293.545 9.25108 294.011 9.31272C294.458 9.37221 297.118 9.26665 297.47 9.30266C300.226 9.58542 300.37 10.7297 300.5 10.8195C301.971 11.8059 305.201 11.7731 306.02 11.9034C307.666 12.165 309.188 12.4752 310.642 12.7853L310.658 12.7889C312.511 13.217 314.254 13.6433 316.006 13.9684C318.046 14.3485 318.409 13.7045 319.987 14.106C325.232 15.4401 326.836 16.8458 331.995 17.2008C333.101 17.2779 332.226 16.2684 335.893 17.7779C336.123 17.8729 338.821 19.096 340.537 19.1448C340.753 19.1507 340.799 18.9289 341.074 18.9755C341.401 19.0315 341.706 19.0922 341.998 19.1564L342.095 19.1819C343.437 19.5448 344.499 19.9688 346.124 20.3687C348.099 20.8547 350.481 21.4152 352.687 22.1386C354.016 22.5742 355.62 23.4816 356.234 23.7682C357.965 24.5831 360.047 24.682 361.07 25.3558C362.102 26.0342 359.732 25.9159 362.639 27.0075C362.913 26.4747 363.336 25.9687 363.678 25.4522C370.186 27.3719 376.542 29.4239 383.084 31.3051C383.896 31.5378 383.156 30.9924 384.028 31.234C387.706 32.2546 390.844 33.4047 394.67 34.4269C397.419 35.1604 400.477 35.7467 403.381 36.48L403.619 36.562C403.836 36.6397 404.053 36.7183 404.269 36.7977C405.837 38.1483 410.338 39.6977 413.523 41.0346C414.639 41.5027 414.498 41.6398 415.275 42.0131C418.21 43.4174 417.017 42.3011 417.879 42.5438C418.025 42.5851 418.165 42.6269 418.299 42.6692C421.691 43.8131 421.643 45.1079 425.512 47.2326C425.726 47.3329 428.662 48.3072 429.03 48.5245C431.385 49.7819 429.258 48.9704 430.577 49.9661C432.955 51.8258 434.461 53.2674 437.149 55.5628C437.402 55.7816 437.79 56.0797 438.235 56.4474C439.161 57.2097 440.327 58.2908 441.024 59.4787C441.16 59.7095 440.884 59.7511 441.009 59.9218C443.242 63.0252 443.841 62.6978 445.317 64.376C446.099 65.2896 446.85 66.6515 447.371 67.8242C447.798 68.7884 448.102 69.6083 448.197 69.9088C448.737 71.6114 447.386 68.8333 447.306 68.7703C446.363 68.0334 447.625 70.0642 448.506 71.6644C448.005 72.2589 449.32 74.4482 449.421 73.3217C449.43 73.195 448.66 71.9986 448.506 71.6644C449.928 72.6936 451.412 75.0778 452.382 78.0972C452.835 79.5108 451.832 78.5062 454.152 82.2559C455.205 83.9579 455.255 83.0368 456.256 84.4967C456.382 84.6806 456.508 84.8688 456.634 85.0609L456.715 85.2196C456.75 85.2868 456.785 85.3545 456.82 85.4225C458.645 88.9604 459.978 93.6824 461.146 97.4183C461.604 98.8851 461.449 97.37 461.768 98.3736C462.605 101.046 462.979 103.492 463.624 106.223C463.682 106.471 463.848 105.804 464.017 106.663C464.288 108.056 464.512 109.418 464.698 110.766C464.732 111.011 464.765 111.255 464.799 111.499C465.383 115.827 465.596 120.032 465.534 124.713C465.528 125.103 465.522 125.497 465.518 125.894C465.503 127.171 465.508 128.842 465.516 130.606C465.537 133.458 465.299 136.547 464.963 138.664C464.099 144.726 461.344 151.742 459.111 156.392C458.875 156.901 458.687 157.307 458.54 157.64C457.792 159.299 458.134 159.128 457.681 160.268C456.659 162.95 453.148 166.64 452.625 167.057C452.624 167.079 454.317 164.701 453.268 165.86C452.481 166.395 452.644 167.028 452.625 167.057C452.36 167.412 448.415 171.729 447.526 172.495C447.081 172.948 447.526 172.909 447.288 173.14C445.018 175.333 442.478 177.286 439.71 178.898C437.053 180.448 434.314 181.896 431.453 183.177C430.031 183.814 428.537 184.425 427.02 184.941C426.887 184.983 426.982 184.625 426.67 184.726C422.285 186.092 419.592 187.059 416.039 188.11C412.506 189.128 409.613 189.625 407.407 189.528C407.082 189.6 406.734 189.672 406.367 189.744C403.793 190.248 400.502 190.666 398.52 190.899C396.265 191.163 396.047 191.802 395.856 191.849C389.766 193.297 386.14 193.543 379.725 194.45C376.679 194.883 370.631 195.805 367.332 196.283C364.713 196.667 363.136 196.718 360.721 197.089C360.397 197.139 360.756 197.364 360.658 197.386C358.01 198.009 359.224 197.217 358.656 197.165C356.592 196.973 355.329 196.89 351.895 197.441C351.108 197.567 348.878 198.725 347.424 198.916C345.536 199.161 346.23 198.762 344.248 199.022C344.078 199.043 344.132 199.247 342.912 199.344C339.398 199.624 335.682 199.86 331.958 200.082C329.674 200.219 327.374 200.352 325.12 200.491C324.315 200.54 325.367 200.807 324.203 200.882C318.728 201.234 312.728 201.488 307.387 201.513C306.07 201.518 306.887 201.261 306.599 201.203C304.842 200.849 302.372 201.516 301.966 201.538C292.205 202.074 284.72 201.605 274.768 201.809C274.228 201.823 270.05 202.428 268.192 201.849C268.065 201.811 266.237 201.223 264.6 201.577C264.498 201.599 265.639 201.91 263.64 201.844C261.64 201.777 258.409 201.898 255.67 201.502C254.8 201.377 252.764 200.757 250.149 201.115C249.983 201.143 245.931 202.008 244.529 201.25C244.302 201.125 244.572 200.401 241.461 200.645C240.866 200.692 241.934 200.905 240.369 200.937C237.971 200.988 234.818 200.635 231.861 200.802C231.348 200.832 229.136 201.211 227.41 200.726C227.14 200.65 227.675 200.435 226.753 200.352C224.828 200.177 222.864 200.051 220.885 199.92C218.382 199.756 215.826 199.574 213.315 199.275C211.753 199.088 212.59 198.757 210.957 198.514C209.301 198.269 206.023 197.875 204.287 197.896C202.556 197.918 204.376 198.727 201.791 198.534C190.578 197.686 179.563 196.08 168.444 194.692C166.804 194.487 168.141 194.877 165.701 194.586C156.731 193.526 141.249 191.727 133.547 190.178C127.377 188.942 135.24 189.723 130.531 188.918C128.189 188.519 125.732 188.92 125.09 188.854C123.229 188.675 121.469 188.439 119.957 188.207L119.576 188.125C116.68 187.262 114.095 186.393 111.002 185.566C110.024 185.304 110.895 185.868 110.063 185.642C107.22 184.873 104.285 183.884 101.575 183.126C100.36 182.786 100.52 183.07 99.409 182.73C98.6211 182.49 97.8617 182.253 97.117 182.013C95.3143 181.433 93.605 180.811 91.8074 180.067C91.5753 179.97 93.2709 180.225 91.2892 179.566C88.081 178.493 84.2173 176.861 80.539 175.589C79.4488 175.21 79.1978 175.684 77.0578 174.37C76.6108 174.089 77.4672 173.797 74.6114 173.108C74.132 173.005 69.4037 171.595 67.4947 170.067C67.0694 169.733 66.1598 168.837 65.1358 168.212C64.9454 168.095 64.7503 167.989 64.5529 167.898C64.3834 167.822 64.9063 168.419 63.8945 167.911C60.3309 166.115 56.6553 164.123 52.997 162.273C52.0199 161.779 53.3219 162.802 51.8699 162.058C49.2063 160.694 46.1358 159.039 43.2502 157.452L42.9312 157.258C41.5912 156.306 40.295 155.376 39.1106 154.521C37.7994 153.574 38.8558 154.011 38.7739 153.923C37.459 152.497 36.2118 152.334 35.6761 152.005C34.724 151.417 33.8566 150.841 33.033 150.271C30.8978 148.79 29.1088 147.279 27.0276 145.61C26.2257 144.961 26.6087 145.641 26.4357 145.527C24.6567 144.316 26.1835 144.983 25.2045 144.054C22.6009 141.559 19.7867 138.726 17.3731 135.955C17.2614 135.827 17.1501 135.7 17.0393 135.574C16.149 134.557 16.8973 135.916 16.101 135.002C14.9125 133.639 13.7163 132.259 12.5209 130.87C8.72474 126.472 5.7095 121.336 3.76319 116.11C3.28011 114.793 3.83248 115.526 3.77829 115.234C3.40889 113.242 2.07867 110.601 1.86754 109.944C1.8588 109.919 1.85014 109.894 1.84157 109.869C0.884418 106.987 0.881019 105.748 0.479553 103.083C0.136006 100.645 -0.0350337 98.0719 0.00584292 95.437C0.0379457 93.2901 0.077951 91.099 0.123632 88.8909C0.272949 79.4513 2.60762 69.8509 5.76144 62.4219C5.97431 61.9124 6.19136 61.4093 6.41247 60.9122C7.99169 57.364 9.76735 54.1309 11.6956 51.1302C11.9181 50.7845 12.1398 50.4401 12.3608 50.0968C17.7581 41.7872 23.8989 34.8869 31.9627 28.2066C32.7097 27.5972 31.748 27.9551 32.393 27.4274C32.6561 27.2139 32.9205 27.0021 33.186 26.7921C40.125 21.3104 47.8471 16.9051 56.2444 13.8648C57.6678 13.3504 59.0961 12.8392 60.5316 12.3311C61.3456 12.0445 60.0677 12.1555 61.3729 11.6865C64.0498 10.7231 67.4928 9.61956 70.3097 8.89102C71.6837 8.53654 69.9331 9.32546 71.3144 8.96612C72.2132 8.73467 73.1362 8.49895 74.0712 8.26762C76.4453 7.68001 78.9018 7.07452 81.2938 6.51359C82.7064 6.18463 80.4951 6.3391 82.3459 5.93792C94.9733 3.25208 107.483 2.24861 120.269 1.92087C121.126 1.90223 121.95 2.49897 123.79 2.2847C123.92 2.10008 123.903 1.89132 123.954 1.69832C126.535 1.55795 129.027 1.44285 131.607 1.34048C147.377 0.729676 163.068 0.642796 178.911 0.479172C179.687 0.471511 178.342 0.147242 179.844 0.130809C188.541 0.0365434 196.967 -0.124426 205.866 0.163085C206.739 0.191339 206.303 0.791203 208.899 0.687327C209.347 0.668238 213.264 0.570006 214.281 0.436266C214.419 0.416119 213.702 0.140047 214.967 0.126637C222.286 0.053797 229.975 0.099133 237.277 0.256834C238.483 0.28273 237.202 0.582184 238.057 0.60322C238.622 0.617006 239.181 0.627442 239.731 0.635247C245.226 0.710389 251.041 0.537587 256.2 0.773068C260.014 0.948059 258.587 1.46424 260.623 1.96631C260.9 2.03716 263.272 2.04432 263.394 2.3383C263.711 3.07751 262.559 3.88955 263.038 4.67723C263.139 4.84687 266.287 4.65854 264.422 5.07216C264.287 5.09986 262.011 5.24005 261.442 5.38028C261.043 5.47724 261.752 5.77519 260.956 5.8998C260.153 6.02432 259.26 5.77508 257.937 5.92218C256.624 6.07105 257.203 6.41039 254.542 6.45535ZM388.327 192.018C386.208 192.073 386.061 193.156 388.273 192.544C388.379 192.513 388.435 192.014 388.327 192.018ZM376.284 30.1712C378.789 31.3829 380.782 31.257 379.024 30.3726C377.265 29.4886 375.521 29.8028 376.284 30.1712ZM348.87 22.5266C351.847 23.7741 352.748 22.4905 349.366 21.8166C349.169 21.777 348.696 22.4538 348.87 22.5266ZM251.226 2.12675C251.242 2.14063 252.965 2.15115 252.989 2.13733C253.892 1.80328 250.497 1.78237 251.226 2.12675ZM321.383 15.9314C322.31 16.3606 325.167 16.8088 324.016 16.2753C323.089 15.846 320.229 15.3972 321.383 15.9314ZM279.049 199.119C279.015 199.103 277.801 199.087 277.825 199.175C277.906 199.459 279.6 199.382 279.049 199.119ZM274.119 7.9134C281.207 8.42161 285.387 10.0043 277.705 9.29395C276.312 9.17026 280.738 9.11796 278.971 8.88076C275.733 8.4503 273.535 9.06995 270.244 8.50935C269.636 8.39969 273.715 7.87385 274.132 7.91246C274.128 7.91277 274.123 7.91308 274.119 7.9134ZM386.932 190.971C386.881 190.966 385.228 191.217 385.186 191.236C384.338 191.708 387.69 191.2 386.932 190.971ZM208.173 195.458C208.088 195.424 204.184 195.042 204.063 195.056C201.98 195.412 209.852 196.185 208.173 195.458ZM462.641 125.682C462.586 125.357 462.54 125.021 462.504 124.68C462.338 123.104 462.335 121.43 462.627 120.219C462.673 121.701 462.691 123.191 462.662 124.681C462.655 125.015 462.649 125.348 462.641 125.682Z" fill="#DCF166"/>
</svg>
